<svg width="147" height="128" viewBox="0 0 147 128" fill="none" xmlns="http://www.w3.org/2000/svg">
<path d="M56.1818 45C55.4318 42.7045 54.4432 40.6477 53.2159 38.8295C52.0114 36.9886 50.5682 35.4205 48.8864 34.125C47.2273 32.8295 45.3409 31.8409 43.2273 31.1591C41.1136 30.4773 38.7955 30.1364 36.2727 30.1364C32.1364 30.1364 28.375 31.2045 24.9886 33.3409C21.6023 35.4773 18.9091 38.625 16.9091 42.7841C14.9091 46.9432 13.9091 52.0455 13.9091 58.0909C13.9091 64.1364 14.9205 69.2386 16.9432 73.3977C18.9659 77.5568 21.7045 80.7045 25.1591 82.8409C28.6136 84.9773 32.5 86.0455 36.8182 86.0455C40.8182 86.0455 44.3409 85.1932 47.3864 83.4886C50.4545 81.7614 52.8409 79.3295 54.5455 76.1932C56.2727 73.0341 57.1364 69.3182 57.1364 65.0455L59.7273 65.5909H38.7273V58.0909H65.3182V65.5909C65.3182 71.3409 64.0909 76.3409 61.6364 80.5909C59.2045 84.8409 55.8409 88.1364 51.5455 90.4773C47.2727 92.7955 42.3636 93.9545 36.8182 93.9545C30.6364 93.9545 25.2045 92.5 20.5227 89.5909C15.8636 86.6818 12.2273 82.5455 9.61364 77.1818C7.02273 71.8182 5.72727 65.4545 5.72727 58.0909C5.72727 52.5682 6.46591 47.6023 7.94318 43.1932C9.44318 38.7614 11.5568 34.9886 14.2841 31.875C17.0114 28.7614 20.2386 26.375 23.9659 24.7159C27.6932 23.0568 31.7955 22.2273 36.2727 22.2273C39.9545 22.2273 43.3864 22.7841 46.5682 23.8977C49.7727 24.9886 52.625 26.5455 55.125 28.5682C57.6477 30.5682 59.75 32.9659 61.4318 35.7614C63.1136 38.5341 64.2727 41.6136 64.9091 45H56.1818Z" fill="white"/>
<path d="M31.4545 93V23.1818H39.9091V85.5H72.3636V93H31.4545Z" fill="white"/>
</svg>
