<svg width="681" height="459" viewBox="0 0 681 459" fill="none" xmlns="http://www.w3.org/2000/svg">
<g clip-path="url(#clip0_2_8)">
<path d="M192.027 403.574C194.505 385.336 206.855 367.366 225.859 361.43C218.364 380.203 218.366 400.796 225.863 419.567C228.783 426.797 232.854 434.56 230.107 441.846C228.398 446.38 224.217 449.849 219.544 452.018C214.87 454.187 209.683 455.221 204.561 456.234L203.553 456.997C195.422 440.192 189.549 421.812 192.027 403.574Z" fill="#F0F0F0"/>
<path d="M226.047 361.775C214.98 373.125 208.102 387.378 206.389 402.509C205.957 405.76 206.088 409.054 206.776 412.268C207.557 415.379 209.235 418.242 211.634 420.559C213.823 422.761 216.341 424.781 217.908 427.432C218.688 428.799 219.143 430.302 219.244 431.842C219.344 433.382 219.088 434.924 218.492 436.367C217.109 439.998 214.383 442.958 211.607 445.767C208.525 448.886 205.27 452.081 203.96 456.217C203.801 456.718 202.961 456.463 203.12 455.963C205.399 448.768 213.03 444.681 216.669 438.201C218.367 435.177 219.08 431.667 217.488 428.475C216.096 425.684 213.501 423.599 211.263 421.387C208.886 419.158 207.142 416.43 206.183 413.442C205.318 410.27 205.049 406.987 205.387 403.732C206.022 396.395 207.912 389.194 210.99 382.394C214.457 374.615 219.351 367.436 225.462 361.168C225.84 360.78 226.423 361.39 226.047 361.775Z" fill="white"/>
<path d="M206.627 397.607C203.892 396.999 201.483 395.522 199.828 393.438C198.174 391.354 197.383 388.8 197.596 386.232C197.606 386.127 197.659 386.03 197.746 385.961C197.832 385.892 197.945 385.856 198.059 385.861C198.174 385.867 198.282 385.912 198.36 385.989C198.439 386.066 198.482 386.167 198.48 386.272C198.277 388.664 199.014 391.043 200.559 392.98C202.104 394.917 204.354 396.286 206.904 396.838C207.458 396.958 207.178 397.727 206.627 397.607Z" fill="white"/>
<path d="M210.363 419.577C215.302 416.877 218.948 412.573 220.575 407.523C220.735 407.022 221.575 407.277 221.415 407.777C219.712 413.03 215.908 417.502 210.761 420.3C210.27 420.567 209.875 419.842 210.363 419.577Z" fill="white"/>
<path d="M215.277 375.382C216.282 375.819 217.39 376.021 218.5 375.969C219.611 375.918 220.691 375.614 221.642 375.086C222.128 374.814 222.523 375.54 222.04 375.81C220.986 376.389 219.793 376.722 218.566 376.782C217.339 376.841 216.115 376.625 215 376.151C214.891 376.115 214.801 376.042 214.749 375.947C214.696 375.851 214.686 375.742 214.719 375.64C214.756 375.538 214.835 375.454 214.94 375.406C215.045 375.358 215.166 375.349 215.277 375.382Z" fill="white"/>
<path d="M283.786 394.006C283.487 394.184 283.188 394.362 282.889 394.546C278.887 396.955 275.105 399.657 271.581 402.627C271.305 402.852 271.028 403.085 270.759 403.317C262.352 410.554 255.486 419.156 250.51 428.687C248.534 432.481 246.876 436.408 245.55 440.432C243.72 445.99 242.219 452.15 238.596 456.696C238.224 457.174 237.82 457.631 237.386 458.063H204.648C204.574 458.029 204.499 458.002 204.424 457.967L203.117 458.022C203.17 457.81 203.229 457.591 203.282 457.38C203.312 457.256 203.349 457.133 203.379 457.01C203.401 456.928 203.424 456.846 203.439 456.771C203.446 456.744 203.453 456.716 203.461 456.696C203.476 456.621 203.498 456.552 203.513 456.484C203.842 455.26 204.18 454.037 204.529 452.813C204.529 452.806 204.529 452.806 204.536 452.799C207.095 443.451 210.856 434.414 215.74 425.877C215.89 425.624 216.039 425.365 216.203 425.112C218.465 421.333 221.061 417.729 223.964 414.337C225.56 412.485 227.258 410.707 229.051 409.012C233.692 404.639 239.056 400.962 244.945 398.115C256.687 392.44 270.281 390.266 282.83 393.732C283.151 393.822 283.465 393.91 283.786 394.006Z" fill="#F0F0F0"/>
<path d="M283.712 394.386C267.41 397.35 252.542 404.939 241.221 416.077C238.737 418.435 236.675 421.137 235.111 424.083C233.688 426.997 233.144 430.207 233.535 433.38C233.835 436.344 234.517 439.345 234.024 442.324C233.747 443.846 233.122 445.297 232.189 446.582C231.257 447.867 230.038 448.957 228.613 449.781C225.12 451.918 220.997 452.778 216.932 453.492C212.42 454.284 207.719 455.042 203.953 457.621C203.496 457.934 202.993 457.268 203.449 456.956C210.001 452.467 218.782 453.409 225.95 450.24C229.295 448.762 232.173 446.352 233.002 442.926C233.727 439.93 233.026 436.835 232.695 433.836C232.263 430.747 232.665 427.608 233.865 424.693C235.261 421.684 237.206 418.914 239.617 416.502C244.95 410.993 251.196 406.285 258.127 402.552C266.012 398.251 274.642 395.216 283.644 393.579C284.202 393.478 284.266 394.286 283.712 394.386Z" fill="white"/>
<path d="M244.636 412.294C242.852 410.302 241.9 407.794 241.95 405.219C242 402.644 243.048 400.169 244.908 398.235C245.286 397.845 245.965 398.364 245.587 398.755C243.852 400.552 242.875 402.858 242.834 405.256C242.793 407.654 243.69 409.987 245.363 411.833C245.726 412.235 244.997 412.694 244.636 412.294Z" fill="white"/>
<path d="M233.167 431.895C238.886 432.461 244.629 431.034 249.249 427.898C249.707 427.586 250.21 428.253 249.753 428.563C244.938 431.819 238.959 433.293 233.009 432.692C232.442 432.634 232.603 431.837 233.167 431.895Z" fill="white"/>
<path d="M266.162 399.316C266.677 400.218 267.429 400.99 268.35 401.561C269.27 402.132 270.332 402.484 271.438 402.587C272.006 402.638 271.844 403.435 271.28 403.384C270.058 403.265 268.887 402.875 267.868 402.246C266.849 401.617 266.013 400.77 265.435 399.777C265.372 399.688 265.348 399.58 265.369 399.475C265.39 399.371 265.453 399.277 265.547 399.214C265.643 399.153 265.762 399.13 265.878 399.149C265.993 399.168 266.095 399.228 266.162 399.316Z" fill="white"/>
<path d="M220.732 141.606H112.419C109.072 141.602 105.863 140.383 103.496 138.217C101.13 136.051 99.7983 133.114 99.7946 130.05V76.0567C99.7983 72.9932 101.13 70.0562 103.496 67.8901C105.863 65.7239 109.072 64.5055 112.419 64.5022H220.732C224.079 64.5055 227.288 65.7239 229.655 67.8901C232.022 70.0562 233.353 72.9932 233.357 76.0566V130.05C233.353 133.114 232.022 136.051 229.655 138.217C227.288 140.383 224.079 141.602 220.732 141.606Z" fill="#E6E6E6"/>
<path d="M386.095 141.606H277.782C274.435 141.602 271.226 140.383 268.859 138.217C266.492 136.051 265.161 133.114 265.157 130.05V76.0567C265.161 72.9932 266.492 70.0562 268.859 67.8901C271.226 65.7239 274.435 64.5055 277.782 64.5022H386.095C389.442 64.5055 392.651 65.7239 395.018 67.8901C397.385 70.0562 398.716 72.9932 398.72 76.0566V130.05C398.716 133.114 397.385 136.051 395.018 138.217C392.651 140.383 389.442 141.602 386.095 141.606Z" fill="#6C63FF"/>
<path d="M551.458 141.606H443.145C439.798 141.602 436.589 140.383 434.222 138.217C431.855 136.051 430.524 133.114 430.52 130.05V76.0567C430.524 72.9932 431.855 70.0562 434.222 67.8901C436.589 65.7239 439.798 64.5055 443.145 64.5022H551.458C554.805 64.5055 558.014 65.7239 560.381 67.8901C562.747 70.0562 564.079 72.9932 564.083 76.0566V130.05C564.079 133.114 562.747 136.051 560.381 138.217C558.014 140.383 554.805 141.602 551.458 141.606Z" fill="#E6E6E6"/>
<path d="M220.732 261.91H112.419C109.072 261.906 105.863 260.688 103.496 258.522C101.13 256.355 99.7983 253.418 99.7946 250.355V196.361C99.7983 193.298 101.13 190.361 103.496 188.194C105.863 186.028 109.072 184.81 112.419 184.807H220.732C224.079 184.81 227.288 186.028 229.655 188.194C232.022 190.361 233.353 193.298 233.357 196.361V250.355C233.353 253.418 232.022 256.355 229.655 258.522C227.288 260.688 224.079 261.906 220.732 261.91Z" fill="#F2F2F2"/>
<path d="M386.095 261.91H277.782C274.435 261.906 271.226 260.688 268.859 258.522C266.492 256.355 265.161 253.418 265.157 250.355V196.361C265.161 193.298 266.492 190.361 268.859 188.194C271.226 186.028 274.435 184.81 277.782 184.807H386.095C389.442 184.81 392.651 186.028 395.018 188.194C397.385 190.361 398.716 193.298 398.72 196.361V250.355C398.716 253.418 397.385 256.355 395.018 258.522C392.651 260.688 389.442 261.906 386.095 261.91Z" fill="#E6E6E6"/>
<path d="M393.743 271.845C404.427 271.845 413.088 263.918 413.088 254.14C413.088 244.361 404.427 236.434 393.743 236.434C383.059 236.434 374.398 244.361 374.398 254.14C374.398 263.918 383.059 271.845 393.743 271.845Z" fill="#6C63FF"/>
<path d="M401.776 252.653H395.199V246.633C395.199 246.447 395.159 246.262 395.081 246.091C395.003 245.919 394.889 245.763 394.745 245.631C394.602 245.499 394.431 245.395 394.243 245.324C394.056 245.253 393.854 245.216 393.651 245.216C393.448 245.216 393.247 245.253 393.059 245.324C392.871 245.395 392.7 245.499 392.557 245.631C392.413 245.763 392.299 245.919 392.221 246.091C392.143 246.262 392.103 246.447 392.103 246.633V252.653H385.526C385.323 252.653 385.122 252.689 384.934 252.761C384.746 252.832 384.575 252.936 384.432 253.068C384.288 253.199 384.174 253.355 384.096 253.527C384.018 253.699 383.978 253.883 383.978 254.069C383.978 254.255 384.018 254.439 384.096 254.611C384.174 254.783 384.288 254.939 384.432 255.071C384.575 255.202 384.746 255.307 384.934 255.378C385.122 255.449 385.323 255.486 385.526 255.486H392.103V261.506C392.103 261.692 392.143 261.876 392.221 262.048C392.299 262.22 392.413 262.376 392.557 262.507C392.7 262.639 392.871 262.743 393.059 262.815C393.247 262.886 393.448 262.922 393.651 262.922C394.062 262.922 394.455 262.773 394.745 262.507C395.036 262.242 395.199 261.881 395.199 261.506V255.486H401.776C401.979 255.486 402.18 255.449 402.368 255.378C402.556 255.307 402.727 255.202 402.87 255.071C403.014 254.939 403.128 254.783 403.206 254.611C403.284 254.439 403.324 254.255 403.324 254.069C403.324 253.883 403.284 253.699 403.206 253.527C403.128 253.355 403.014 253.199 402.87 253.068C402.727 252.936 402.556 252.832 402.368 252.76C402.18 252.689 401.979 252.653 401.776 252.653Z" fill="white"/>
<path d="M561.65 154.646C572.334 154.646 580.995 146.718 580.995 136.94C580.995 127.161 572.334 119.234 561.65 119.234C550.966 119.234 542.305 127.161 542.305 136.94C542.305 146.718 550.966 154.646 561.65 154.646Z" fill="#6C63FF"/>
<path d="M569.683 135.453H563.106V129.433C563.106 129.247 563.066 129.063 562.988 128.891C562.91 128.719 562.796 128.563 562.652 128.431C562.509 128.3 562.338 128.195 562.15 128.124C561.962 128.053 561.761 128.016 561.558 128.016C561.355 128.016 561.153 128.053 560.966 128.124C560.778 128.195 560.607 128.3 560.464 128.431C560.32 128.563 560.206 128.719 560.128 128.891C560.05 129.063 560.01 129.247 560.01 129.433V135.453H553.433C553.23 135.453 553.028 135.49 552.841 135.561C552.653 135.632 552.482 135.736 552.339 135.868C552.195 135.999 552.081 136.156 552.003 136.327C551.925 136.499 551.885 136.683 551.885 136.869C551.885 137.056 551.925 137.24 552.003 137.412C552.081 137.583 552.195 137.74 552.339 137.871C552.482 138.003 552.653 138.107 552.841 138.178C553.028 138.249 553.23 138.286 553.433 138.286H560.01V144.306C560.01 144.492 560.05 144.676 560.128 144.848C560.206 145.02 560.32 145.176 560.464 145.308C560.607 145.439 560.778 145.544 560.966 145.615C561.153 145.686 561.355 145.723 561.558 145.723C561.968 145.723 562.362 145.573 562.652 145.308C562.943 145.042 563.106 144.682 563.106 144.306V138.286H569.683C569.886 138.286 570.087 138.249 570.275 138.178C570.463 138.107 570.634 138.003 570.777 137.871C570.921 137.74 571.035 137.583 571.113 137.412C571.191 137.24 571.231 137.055 571.231 136.869C571.231 136.683 571.191 136.499 571.113 136.327C571.035 136.155 570.921 135.999 570.777 135.868C570.634 135.736 570.463 135.632 570.275 135.561C570.087 135.49 569.886 135.453 569.683 135.453Z" fill="white"/>
<path d="M228.38 153.093C239.064 153.093 247.725 145.166 247.725 135.387C247.725 125.609 239.064 117.682 228.38 117.682C217.696 117.682 209.035 125.609 209.035 135.387C209.035 145.166 217.696 153.093 228.38 153.093Z" fill="#6C63FF"/>
<path d="M236.413 133.901H229.836V127.881C229.836 127.695 229.796 127.51 229.718 127.339C229.64 127.167 229.526 127.011 229.383 126.879C229.239 126.747 229.068 126.643 228.88 126.572C228.693 126.501 228.491 126.464 228.288 126.464C228.085 126.464 227.884 126.501 227.696 126.572C227.508 126.643 227.338 126.747 227.194 126.879C227.05 127.011 226.936 127.167 226.858 127.339C226.781 127.51 226.741 127.695 226.741 127.881V133.901H220.163C219.96 133.901 219.759 133.937 219.571 134.008C219.383 134.08 219.213 134.184 219.069 134.316C218.925 134.447 218.811 134.603 218.733 134.775C218.656 134.947 218.615 135.131 218.615 135.317C218.615 135.693 218.779 136.053 219.069 136.319C219.359 136.585 219.753 136.734 220.163 136.734H226.74V142.754C226.74 142.94 226.781 143.124 226.858 143.296C226.936 143.468 227.05 143.624 227.194 143.755C227.338 143.887 227.508 143.991 227.696 144.062C227.884 144.134 228.085 144.17 228.288 144.17C228.491 144.17 228.693 144.134 228.88 144.062C229.068 143.991 229.239 143.887 229.383 143.755C229.526 143.624 229.64 143.468 229.718 143.296C229.796 143.124 229.836 142.94 229.836 142.754V136.734H236.413C236.616 136.734 236.818 136.697 237.006 136.626C237.193 136.555 237.364 136.45 237.508 136.319C237.651 136.187 237.765 136.031 237.843 135.859C237.921 135.687 237.961 135.503 237.961 135.317C237.961 134.941 237.798 134.581 237.508 134.315C237.217 134.05 236.824 133.901 236.413 133.901Z" fill="white"/>
<path d="M373.213 110.928C373.566 111.905 373.68 112.941 373.548 113.963C373.416 114.985 373.041 115.969 372.45 116.844C371.858 117.719 371.063 118.464 370.123 119.028C369.182 119.591 368.118 119.959 367.005 120.106L358.059 175.99L343.386 169.43L358.145 113.648C358 111.92 358.553 110.204 359.698 108.825C360.843 107.445 362.502 106.498 364.359 106.163C366.216 105.827 368.143 106.127 369.775 107.006C371.407 107.884 372.63 109.28 373.213 110.928Z" fill="#9E616A"/>
<path d="M266.374 289.91C267.028 289.072 267.472 288.114 267.677 287.102C267.882 286.09 267.841 285.049 267.559 284.053C267.277 283.057 266.759 282.129 266.043 281.336C265.327 280.543 264.429 279.903 263.413 279.462L269.448 220.019L256.808 225.948L252.862 283.229C252.165 284.84 252.137 286.629 252.785 288.257C253.433 289.885 254.71 291.239 256.376 292.063C258.042 292.886 259.979 293.122 261.822 292.725C263.665 292.328 265.285 291.327 266.374 289.91Z" fill="#9E616A"/>
<path d="M275.009 259.845L329.249 257.936L332.378 206.383H269.794L275.009 259.845Z" fill="#9E616A"/>
<path d="M264.943 441.909L274.211 441.908L278.62 409.188H264.941L264.943 441.909Z" fill="#9E616A"/>
<path d="M262.643 437.724L277.295 436.924V442.669L291.225 451.474C291.913 451.909 292.431 452.534 292.704 453.257C292.977 453.981 292.99 454.765 292.741 455.496C292.492 456.226 291.994 456.865 291.321 457.319C290.647 457.772 289.833 458.017 288.997 458.017H271.553L268.547 452.333L267.373 458.017H260.796L262.643 437.724Z" fill="#2F2E41"/>
<path d="M306.168 441.909L315.437 441.908L319.846 409.188H306.166L306.168 441.909Z" fill="#9E616A"/>
<path d="M274.257 247.743C274.257 247.743 258.028 259.735 266.826 302.562C265.486 302.708 267.003 305.125 267.003 305.125L268.272 340.02L269.253 344.02L265.992 350.473L267.336 357.485L263.191 421.124L278.504 422.936L293.158 356.851L295.949 349.421L298.748 342.909L297.238 335.964L298.476 325.185L306.924 288.838L308.992 351.876L306.106 357.894L307.712 364.501L304.134 368.008L302.72 426.988L319.048 427.687L332.558 368.231L331.511 360.643L333.308 355.033V341.929L336.387 335.745L343.098 302.023C343.098 302.023 345.122 275.666 330.351 244.65L274.257 247.743Z" fill="#2F2E41"/>
<path d="M280.871 163.537C280.871 163.537 260.373 167.247 256.841 183.247C253.309 199.247 251.037 235.454 251.037 235.454L251.81 240.496L271.638 244.704L284.294 193.972L280.871 163.537Z" fill="#3F3D56"/>
<path d="M327.65 168.938C327.65 168.938 329.728 166.273 341.364 165.862C341.843 165.845 341.249 164.975 341.249 164.975L346.845 139.942L365.494 149.392L362.346 175.636L331.702 207.536L327.65 168.938Z" fill="#3F3D56"/>
<path d="M316.026 243.566C307.247 243.566 294.032 242.68 274.138 239.976C272.857 239.8 271.67 239.252 270.753 238.415C269.836 237.577 269.235 236.493 269.038 235.32C268.389 234.693 267.966 233.897 267.828 233.041C267.689 232.186 267.842 231.312 268.265 230.539L268.284 230.506L267.833 230.02C267.136 229.27 266.727 228.332 266.667 227.349C266.608 226.366 266.902 225.393 267.505 224.578L261.344 184.237C260.719 180.231 261.676 176.152 264.043 172.735C266.41 169.317 270.032 166.784 274.257 165.593L276.532 164.945L285.133 154.648L285.302 154.649L312.914 154.986L321.875 165.401L336.36 168.527L336.397 168.728L339.761 186.513C341.51 195.763 337.498 199.402 332.378 207.536L333.881 230.382L334.563 231.516C334.941 232.144 335.068 232.873 334.921 233.577C334.774 234.281 334.363 234.916 333.759 235.372C334.216 236.567 334.247 237.864 333.848 239.076L333.494 240.147C333.494 240.178 333.4 240.614 332.635 241.145C331.256 242.104 327.297 243.566 316.026 243.566Z" fill="#3F3D56"/>
<path d="M303.869 437.724L318.521 436.924V442.669L332.451 451.474C333.139 451.909 333.657 452.534 333.93 453.257C334.202 453.981 334.215 454.765 333.966 455.496C333.717 456.226 333.22 456.865 332.546 457.319C331.873 457.772 331.059 458.017 330.222 458.017H312.779L309.772 452.333L308.598 458.017H302.021L303.869 437.724Z" fill="#2F2E41"/>
<path d="M319.257 132.209C321.172 121.408 313.158 111.231 301.357 109.478C289.557 107.726 278.438 115.061 276.523 125.862C274.608 136.662 282.622 146.839 294.423 148.592C306.224 150.345 317.342 143.01 319.257 132.209Z" fill="#9E616A"/>
<path d="M310.548 109.676C302.614 104.681 295.627 103.921 289.888 105.337C289.144 104.284 288.101 103.436 286.87 102.884C282.394 92.5614 268.772 86.362 257.082 89.3756C245.316 92.4088 237.198 104.337 239.412 115.34C240.784 122.16 245.474 128.066 247.36 134.782C251.011 147.784 242.104 162.678 228.17 166.869C241.363 169.293 255.885 161.918 260.618 150.388C262.917 144.788 263.056 138.674 263.348 132.698C263.425 128.573 263.977 124.467 264.995 120.448C265.501 118.645 266.215 116.896 267.125 115.232C269.109 111.573 272.403 108.648 276.458 106.944C276.095 107.972 276.005 109.065 276.194 110.131C276.383 111.197 276.846 112.208 277.545 113.078C274.452 116.625 272.767 120.462 272.767 122.759C266.34 133.511 275.531 142.746 287.279 148.629C291.964 150.987 297.374 151.851 302.656 151.082L303.147 149.162L303.813 150.892L306.036 156.691C308.6 157.826 311.142 159.071 313.662 160.425C312.705 156.31 311.93 152.203 311.397 148.187C310.659 142.721 313.231 134.584 315.087 129.636C316.237 126.586 316.828 123.383 316.834 120.157V120.016L318.64 125.327L325.217 122.759C323.994 116.335 325.218 109.043 310.548 109.676Z" fill="#2F2E41"/>
<path d="M581.037 459H99.9633C99.6964 458.999 99.4408 458.901 99.2526 458.728C99.0643 458.555 98.9586 458.32 98.9586 458.076C98.9586 457.832 99.0643 457.597 99.2526 457.424C99.4408 457.251 99.6964 457.153 99.9633 457.152H581.037C581.304 457.153 581.559 457.251 581.747 457.424C581.936 457.597 582.041 457.832 582.041 458.076C582.041 458.32 581.936 458.555 581.747 458.728C581.559 458.901 581.304 458.999 581.037 459Z" fill="#CCCCCC"/>
<path d="M226.169 274.172C236.853 274.172 245.514 266.245 245.514 256.466C245.514 246.688 236.853 238.76 226.169 238.76C215.485 238.76 206.824 246.688 206.824 256.466C206.824 266.245 215.485 274.172 226.169 274.172Z" fill="#E6E6E6"/>
<path d="M517.237 246.29H449.385C447.288 246.288 445.278 245.525 443.795 244.168C442.313 242.811 441.479 240.971 441.476 239.052V205.228C441.479 203.309 442.313 201.469 443.795 200.112C445.278 198.755 447.288 197.992 449.385 197.989H517.237C519.334 197.992 521.344 198.755 522.826 200.112C524.309 201.469 525.143 203.309 525.145 205.228V239.052C525.143 240.971 524.309 242.811 522.826 244.168C521.344 245.525 519.334 246.288 517.237 246.29Z" fill="#F2F2F2"/>
<path d="M518.237 232.551C523.91 232.551 528.51 228.341 528.51 223.148C528.51 217.955 523.91 213.746 518.237 213.746C512.563 213.746 507.963 217.955 507.963 223.148C507.963 228.341 512.563 232.551 518.237 232.551Z" fill="#6C63FF"/>
<path d="M522.503 222.359H519.01V219.162C519.01 219.063 518.989 218.965 518.947 218.874C518.906 218.783 518.845 218.7 518.769 218.63C518.693 218.56 518.602 218.505 518.502 218.467C518.403 218.429 518.296 218.41 518.188 218.41C517.97 218.41 517.761 218.489 517.607 218.63C517.453 218.771 517.366 218.962 517.366 219.162V222.359H513.873C513.655 222.359 513.446 222.438 513.292 222.579C513.138 222.72 513.051 222.912 513.051 223.111C513.051 223.21 513.072 223.308 513.114 223.399C513.155 223.49 513.216 223.573 513.292 223.643C513.368 223.713 513.459 223.768 513.559 223.806C513.658 223.844 513.765 223.863 513.873 223.863H517.366V227.06C517.366 227.159 517.387 227.257 517.429 227.348C517.47 227.439 517.53 227.522 517.607 227.592C517.683 227.662 517.774 227.717 517.873 227.755C517.973 227.793 518.08 227.813 518.188 227.813C518.406 227.813 518.615 227.733 518.769 227.592C518.923 227.451 519.01 227.26 519.01 227.06V223.863H522.503C522.721 223.863 522.93 223.784 523.084 223.643C523.238 223.502 523.325 223.311 523.325 223.111C523.325 223.012 523.303 222.914 523.262 222.823C523.221 222.732 523.16 222.649 523.084 222.579C523.008 222.509 522.917 222.454 522.817 222.416C522.718 222.378 522.611 222.359 522.503 222.359Z" fill="white"/>
<path d="M544.88 236.692H488.964C486.591 236.689 484.316 235.825 482.637 234.289C480.959 232.753 480.015 230.671 480.012 228.499V197.949C480.013 197.55 480.188 197.167 480.497 196.884C480.806 196.602 481.225 196.443 481.662 196.443C482.098 196.443 482.517 196.602 482.826 196.884C483.136 197.167 483.31 197.55 483.311 197.949V206.131L548.261 211.535C549.558 211.556 550.795 212.042 551.704 212.889C552.614 213.735 553.125 214.875 553.126 216.063C553.126 216.156 553.117 216.249 553.098 216.341L549.825 232.318C549.78 233.491 549.239 234.602 548.317 235.418C547.395 236.234 546.163 236.69 544.88 236.692ZM483.311 209.162V228.499C483.313 229.871 483.909 231.186 484.969 232.156C486.028 233.126 487.465 233.671 488.964 233.673H544.881C545.318 233.672 545.737 233.513 546.046 233.23C546.355 232.947 546.529 232.563 546.53 232.163C546.53 232.07 546.539 231.977 546.558 231.885L549.823 215.946C549.791 215.567 549.603 215.213 549.299 214.955C548.994 214.697 548.594 214.554 548.179 214.553C548.129 214.553 548.079 214.551 548.03 214.547L483.311 209.162Z" fill="#6C63FF"/>
<path d="M474.106 250.78C475.624 250.78 476.854 249.653 476.854 248.264C476.854 246.875 475.624 245.748 474.106 245.748C472.588 245.748 471.357 246.875 471.357 248.264C471.357 249.653 472.588 250.78 474.106 250.78Z" fill="#6C63FF"/>
<path d="M542.682 250.78C544.2 250.78 545.43 249.653 545.43 248.264C545.43 246.875 544.2 245.748 542.682 245.748C541.163 245.748 539.933 246.875 539.933 248.264C539.933 249.653 541.163 250.78 542.682 250.78Z" fill="#6C63FF"/>
<path d="M545.43 245.748H471.907C471.469 245.748 471.05 245.589 470.741 245.306C470.431 245.023 470.258 244.639 470.258 244.239C470.258 243.838 470.431 243.455 470.741 243.171C471.05 242.888 471.469 242.729 471.907 242.729H545.43C545.868 242.729 546.287 242.888 546.596 243.171C546.906 243.455 547.079 243.838 547.079 244.239C547.079 244.639 546.906 245.023 546.596 245.306C546.287 245.589 545.868 245.748 545.43 245.748Z" fill="#6C63FF"/>
<path d="M486.06 198.956H471.767C471.33 198.955 470.911 198.795 470.603 198.512C470.294 198.229 470.121 197.846 470.121 197.446C470.121 197.046 470.294 196.663 470.603 196.38C470.911 196.097 471.33 195.938 471.767 195.937H486.06C486.496 195.938 486.915 196.097 487.223 196.38C487.532 196.663 487.705 197.046 487.705 197.446C487.705 197.846 487.532 198.229 487.223 198.512C486.915 198.795 486.496 198.955 486.06 198.956Z" fill="#6C63FF"/>
<path d="M497.526 244.98C497.132 244.98 496.75 244.851 496.452 244.615L485.612 236.089C485.447 235.96 485.312 235.803 485.213 235.626C485.115 235.449 485.056 235.256 485.04 235.058C485.023 234.86 485.049 234.661 485.117 234.472C485.184 234.284 485.292 234.109 485.433 233.959C485.574 233.808 485.747 233.685 485.94 233.595C486.134 233.506 486.345 233.452 486.561 233.437C486.777 233.422 486.995 233.447 487.201 233.509C487.407 233.571 487.597 233.67 487.761 233.799L498.601 242.325C498.857 242.526 499.039 242.794 499.123 243.093C499.207 243.391 499.19 243.706 499.073 243.995C498.956 244.284 498.745 244.534 498.468 244.71C498.191 244.886 497.863 244.98 497.526 244.98Z" fill="#6C63FF"/>
<path d="M499.81 235.764C499.593 235.764 499.379 235.725 499.179 235.65C498.979 235.574 498.797 235.463 498.644 235.322C498.491 235.182 498.369 235.016 498.286 234.833C498.203 234.65 498.161 234.453 498.161 234.255V210.025C498.161 209.625 498.334 209.241 498.644 208.958C498.953 208.674 499.372 208.515 499.81 208.515C500.247 208.515 500.667 208.674 500.976 208.958C501.285 209.241 501.459 209.625 501.459 210.025V234.255C501.459 234.453 501.416 234.649 501.334 234.833C501.251 235.016 501.129 235.182 500.976 235.322C500.823 235.462 500.641 235.574 500.441 235.65C500.241 235.725 500.026 235.764 499.81 235.764Z" fill="#6C63FF"/>
<path d="M534.647 235.764C534.431 235.764 534.216 235.725 534.016 235.65C533.816 235.574 533.634 235.463 533.481 235.322C533.328 235.182 533.207 235.016 533.124 234.833C533.041 234.65 532.998 234.453 532.998 234.255V212.037C532.999 211.638 533.173 211.255 533.483 210.972C533.792 210.69 534.211 210.531 534.647 210.531C535.084 210.531 535.503 210.69 535.812 210.972C536.121 211.255 536.296 211.638 536.297 212.037V234.255C536.297 234.453 536.254 234.649 536.171 234.833C536.088 235.016 535.967 235.182 535.814 235.322C535.661 235.462 535.479 235.574 535.279 235.65C535.079 235.725 534.864 235.764 534.647 235.764Z" fill="#6C63FF"/>
</g>
<defs>
<clipPath id="clip0_2_8">
<rect width="681" height="459" fill="white"/>
</clipPath>
</defs>
</svg>
